<svg role="img" aria-label="Hussmann" xmlns="http://www.w3.org/2000/svg" viewBox="0 0 175 19.1"><path fill="currentColor" d="M166.9 4v13.1h-6v-10c0-.9-1.4-1.8-3.1-.7 0 0-1 .8-1 2.6v8h-6V1.8h6.1v1.8s4.6-2.4 6.9-1.9c.1-.1 2.5.2 3.1 2.3zM146.3 4v13.1h-6v-10c0-.9-1.4-1.8-3.1-.7 0 0-1 .8-1 2.6v8h-6V1.7h6.1v1.8s4.6-2.4 6.9-1.9c0 0 2.5.3 3.1 2.4zM81 17.1V1.7h6.1v2.1s3.9-2.4 6.2-2c0 0 1.9.1 3 2 0 0 3.7-2.7 6.6-1.9 0 0 2.5.7 2.6 2.6v12.6h-6.1V7.5s-.2-1.6-1.8-1.1c0 0-1.2.2-1.3 1.7v9h-6.1V7.7s-.7-1.9-2.3-.8c0 0-.8.5-.8 2.1v8.1H81zM30.2 17.1h5.3c3.3-.1 3.1-2.9 3.1-2.9V1.6h-6.3v11.5c0 1.2-1.1 1.4-1.6 1.5h-.6c-.5 0-1.6-.2-1.6-1.5V1.6h-6.3v12.5s-.2 2.8 3.1 2.9h5.3-.4v.1zM71.1 7H77V3.2s-.3-1.6-2.5-1.6h-9.2s-2.9-.3-3.3 1.8v5.9s.1 1.7 3.3 1.8h4s1.7 0 1.8 1.1c0 0 .3 1.4-.3 2-.3.3-.5.5-1.2.5-.5 0-.9-.2-1.1-.5-.3-.5-.3-.8-.3-1.8H62v2.7s-.2 2 2 2h10.7s2 .2 2.5-2.3v-4.2s-.2-2.1-1.8-2.1c0 0-5.3-.1-5.4-.2-.3 0-1.8.2-1.7-1.1V5.6c0-.9.8-1.4 1.5-1.4.9 0 1.4.5 1.5 1.4L71.1 7zM52.1 7H58V3.2s-.3-1.6-2.5-1.6h-9.2s-2.9-.3-3.3 1.8v5.9s.1 1.7 3.3 1.8h4s1.7 0 1.8 1.1c0 0 .3 1.4-.3 2-.3.3-.5.5-1.2.5-.5 0-.9-.2-1.1-.5-.3-.5-.3-.8-.3-1.8H43v2.7s-.2 2 2 2h10.7s2 .2 2.5-2.3v-4.2s-.2-2.1-1.8-2.1c0 0-5.3-.1-5.4-.2-.3 0-1.8.2-1.7-1.1V5.6c0-.9.8-1.4 1.5-1.4.9 0 1.4.5 1.5 1.4L52.1 7zM9.6 10.7h1.2s.7 0 .7.8v5.6h6.4V1.6h-6.4v5.5s0 .7-.7.8H8.4c-.7 0-.7-.7-.7-.7V1.6H1.4V17h6.3v-5.6c0-.8.7-.8.7-.8l1.2.1z"/><path fill="currentColor" fill-rule="evenodd" clip-rule="evenodd" d="M171.3 5.7c1.4 0 2.6-1.1 2.6-2.5 0-1.5-1.2-2.5-2.6-2.5-1.4 0-2.6 1.1-2.6 2.5.1 1.4 1.2 2.5 2.6 2.5zm-2-2.6c0-1.2.9-2.1 2.1-2.1 1.1 0 2.1.9 2.1 2.1s-.9 2.1-2.1 2.1-2.1-.9-2.1-2.1zm1.5.2h.5l.8 1.3h.5l-.8-1.3c.4-.1.8-.3.8-.8 0-.6-.3-.8-1-.8h-1.1v2.9h.4l-.1-1.3zm0-.4V2h.6c.3 0 .6.1.6.4 0 .5-.3.5-.7.5h-.5zM119.9 9.1V4.4c-.1-.2-.2-.7-1.1-.7h-1.6c-.5 0-1.1 0-1.1.8v4.3c0 1.2.7 1.1.7 1.1h2.3c.1.1.8.1.8-.8zm2.5-7.5c4.1-.2 3.8 2.8 3.8 2.8v12.7h-6.3v-3.3c0-.3-.2-.7-.8-.7h-2.2c-.3 0-.8.3-.8.7v3.4h-6.3V4.6s-.3-3 3.7-2.8H122.4v-.2z"/></svg>